<?xml version="1.0" standalone="no"?>
<!DOCTYPE svg PUBLIC "-//W3C//DTD SVG 20010904//EN"
 "http://www.w3.org/TR/2001/REC-SVG-20010904/DTD/svg10.dtd">
<svg version="1.0" xmlns="http://www.w3.org/2000/svg"
 width="829.000000pt" height="834.000000pt" viewBox="0 0 829.000000 834.000000"
 preserveAspectRatio="xMidYMid meet">

<g transform="translate(0.000000,834.000000) scale(0.100000,-0.100000)"
fill="#000000" stroke="none">
<path d="M2783 5770 c-38 -15 -56 -54 -49 -104 11 -73 83 -157 265 -310 l94
-79 -59 -27 c-93 -43 -166 -104 -228 -191 -75 -104 -98 -158 -104 -243 -4 -52
-10 -74 -23 -86 -11 -8 -22 -28 -25 -45 -6 -32 -6 -32 93 -162 142 -186 285
-542 314 -783 18 -147 -6 -424 -48 -557 l-17 -53 -35 7 c-20 5 -72 8 -116 7
-123 -1 -194 -43 -249 -148 -14 -27 -26 -65 -26 -85 0 -126 110 -290 218 -325
71 -24 220 -20 249 6 13 12 36 18 64 18 68 0 159 35 277 108 59 36 139 83 177
105 178 101 267 176 425 357 40 47 108 116 149 154 100 91 412 341 450 360 16
9 121 41 233 71 112 31 318 91 458 135 140 43 294 90 342 104 93 28 108 41
108 95 0 21 -8 36 -27 50 -16 11 -36 28 -46 38 -12 12 -42 19 -95 24 -66 6
-93 14 -179 58 -56 28 -104 55 -108 60 -3 6 -24 15 -47 22 -74 19 -394 186
-602 311 -110 67 -255 150 -321 183 -66 34 -150 84 -186 112 -36 27 -102 70
-145 94 -43 23 -144 90 -224 147 -80 58 -217 152 -305 210 -88 58 -182 122
-210 143 -27 20 -113 72 -190 115 -205 114 -216 118 -252 104z m501 -631 c48
-22 81 -132 73 -242 -4 -68 -7 -73 -43 -106 -66 -57 -156 -94 -245 -99 -107
-6 -121 -1 -159 59 -37 56 -39 84 -14 149 24 64 77 115 164 159 41 21 97 50
124 64 55 30 65 32 100 16z m340 -89 c81 -55 165 -109 187 -120 22 -12 66 -45
97 -73 31 -29 98 -84 147 -122 50 -38 162 -132 250 -209 88 -76 181 -150 207
-165 26 -14 48 -28 48 -31 0 -3 -37 -18 -82 -33 -83 -27 -107 -40 -257 -130
-93 -56 -161 -125 -161 -162 0 -20 -7 -29 -32 -37 -66 -23 -355 -172 -434
-223 -75 -48 -202 -144 -316 -237 -26 -21 -50 -38 -55 -38 -4 0 -8 69 -9 153
-1 252 -56 458 -198 741 -44 88 -82 164 -84 167 -1 3 44 6 100 6 156 0 276 46
385 146 70 64 86 105 91 222 2 75 -1 118 -16 173 -10 39 -17 72 -16 72 1 0 68
-45 148 -100z m1363 -1015 c101 -30 91 -38 -114 -94 -388 -107 -358 -92 -634
-316 -178 -144 -291 -251 -461 -436 -96 -105 -158 -154 -303 -236 -38 -22
-115 -68 -170 -102 -54 -33 -102 -61 -106 -61 -3 0 -9 23 -13 51 -4 28 -17 78
-29 113 l-23 62 21 81 c34 137 75 184 340 390 154 119 222 161 393 247 168 84
226 106 449 172 103 31 242 72 308 92 66 19 156 38 200 42 44 4 83 8 86 8 3 1
28 -5 56 -13z"/>
</g>
</svg>
